<?xml version="1.0" standalone="no"?>
<!DOCTYPE svg PUBLIC "-//W3C//DTD SVG 20010904//EN"
 "http://www.w3.org/TR/2001/REC-SVG-20010904/DTD/svg10.dtd">
<svg version="1.0" xmlns="http://www.w3.org/2000/svg"
 width="2000.000000pt" height="476.000000pt" viewBox="0 0 2000.000000 476.000000"
 preserveAspectRatio="xMidYMid meet">

<g transform="translate(0.000000,476.000000) scale(0.100000,-0.100000)"
fill="#000000" stroke="none">
<path d="M16283 4747 c1 -7 -4 -11 -10 -9 -7 1 -12 -4 -10 -10 1 -7 -4 -12
-10 -10 -7 1 -12 -4 -10 -10 1 -7 -4 -12 -10 -10 -7 1 -12 -4 -10 -10 1 -7 -4
-12 -10 -10 -7 1 -12 -4 -10 -10 1 -7 -4 -12 -10 -10 -7 1 -12 -4 -10 -10 1
-7 -4 -12 -10 -10 -7 1 -12 -4 -10 -10 1 -7 -4 -12 -10 -10 -7 1 -12 -4 -10
-10 1 -7 -4 -12 -10 -10 -7 1 -12 -4 -10 -10 1 -7 -4 -12 -10 -10 -7 1 -12 -4
-10 -10 1 -7 -4 -12 -10 -11 -7 2 -12 -3 -10 -10 1 -6 -4 -11 -10 -10 -7 2
-12 -3 -10 -10 1 -6 -4 -11 -10 -10 -7 2 -12 -3 -10 -10 1 -6 -4 -11 -10 -10
-7 2 -12 -3 -10 -10 1 -6 -4 -11 -10 -10 -7 2 -12 -3 -10 -10 1 -6 -4 -11 -10
-9 -7 1 -12 -4 -10 -10 1 -7 -4 -12 -10 -10 -7 1 -12 -4 -10 -10 1 -7 -4 -12
-10 -10 -7 1 -12 -4 -10 -10 1 -7 -4 -12 -10 -10 -7 1 -12 -4 -10 -10 1 -7 -4
-12 -10 -10 -7 1 -12 -4 -10 -10 1 -7 -4 -12 -11 -10 -6 1 -11 -4 -10 -10 2
-7 -3 -12 -10 -10 -6 1 -11 -4 -10 -10 2 -7 -3 -12 -10 -10 -6 1 -11 -4 -10
-10 2 -7 -3 -12 -10 -10 -6 1 -11 -4 -10 -10 2 -7 -3 -12 -10 -10 -6 1 -11 -4
-10 -10 2 -7 -3 -12 -10 -10 -6 1 -11 -4 -10 -10 2 -7 -3 -12 -10 -10 -6 1
-11 -4 -10 -10 2 -7 -3 -12 -10 -10 -6 1 -11 -4 -10 -10 2 -7 -3 -12 -10 -10
-6 1 -11 -4 -10 -10 2 -7 -3 -12 -9 -11 -7 2 -12 -3 -10 -10 1 -6 -4 -11 -10
-10 -7 2 -12 -3 -10 -10 1 -6 -4 -11 -10 -10 -7 2 -12 -3 -10 -10 1 -6 -4 -11
-10 -10 -7 2 -12 -3 -10 -10 1 -6 -4 -11 -10 -10 -7 2 -12 -3 -10 -10 1 -6 -4
-11 -10 -10 -7 2 -12 -3 -10 -10 1 -6 -4 -11 -10 -10 -7 2 -12 -3 -10 -10 1
-6 -4 -11 -10 -10 -7 2 -12 -3 -10 -10 1 -6 -4 -11 -10 -10 -7 2 -12 -3 -10
-10 1 -6 -4 -11 -10 -10 -7 2 -12 -3 -10 -10 1 -6 -4 -11 -10 -10 -7 2 -12 -3
-10 -10 1 -6 -4 -11 -10 -10 -7 2 -12 -3 -10 -10 1 -6 -4 -11 -10 -10 -7 2
-12 -3 -10 -10 1 -6 -4 -11 -10 -10 -7 2 -12 -3 -10 -10 1 -6 -4 -11 -10 -10
-7 2 -12 -3 -10 -10 1 -6 -4 -11 -10 -10 -7 2 -12 -3 -10 -10 1 -6 -4 -11 -10
-10 -7 2 -12 -3 -10 -10 1 -6 -4 -11 -10 -10 -7 2 -12 -3 -10 -10 1 -6 -4 -11
-10 -10 -7 2 -12 -3 -10 -10 1 -6 -4 -11 -10 -10 -7 2 -12 -3 -10 -10 1 -6 -4
-11 -10 -10 -7 2 -12 -3 -10 -10 1 -6 -4 -11 -10 -10 -7 2 -12 -3 -10 -10 1
-6 -4 -11 -10 -10 -7 2 -12 -3 -10 -10 1 -7 -7 -12 -20 -11 -12 1 -21 -4 -20
-10 1 -6 -4 -10 -10 -9 -7 2 -12 -3 -10 -10 1 -6 -4 -11 -10 -10 -7 2 -12 -3
-10 -10 1 -6 -4 -11 -10 -10 -7 2 -12 -3 -10 -10 1 -6 -4 -11 -10 -10 -7 2
-12 -3 -10 -10 1 -6 -4 -11 -11 -9 -6 1 -11 -4 -10 -10 2 -7 -3 -12 -10 -10
-6 1 -11 -4 -10 -10 2 -7 -3 -12 -10 -10 -6 1 -11 -4 -10 -10 2 -7 -3 -12 -10
-10 -6 1 -11 -4 -10 -10 2 -7 -3 -12 -10 -10 -6 1 -11 -4 -10 -10 2 -7 -3 -12
-10 -10 -6 1 -11 -4 -10 -10 2 -7 -3 -12 -10 -10 -6 1 -11 -4 -10 -10 2 -7 -3
-12 -10 -10 -6 1 -11 -4 -10 -10 2 -7 -3 -12 -10 -10 -6 1 -11 -4 -10 -10 2
-7 -3 -12 -10 -10 -6 1 -11 -4 -10 -10 2 -7 -3 -12 -10 -10 -6 1 -11 -4 -10
-10 2 -7 -3 -12 -10 -10 -6 1 -11 -4 -10 -10 2 -7 -3 -12 -10 -10 -6 1 -11 -4
-10 -10 2 -7 -3 -12 -10 -10 -6 1 -11 -4 -10 -10 2 -7 -3 -12 -10 -10 -6 1
-11 -4 -10 -10 2 -7 -3 -12 -10 -10 -6 1 -11 -4 -10 -10 2 -7 -3 -12 -10 -10
-6 1 -11 -4 -10 -10 2 -7 -3 -12 -10 -10 -6 1 -11 -4 -10 -10 2 -7 -3 -12 -10
-10 -6 1 -11 -4 -10 -10 2 -7 -3 -12 -10 -10 -6 1 -11 -4 -10 -10 2 -7 -3 -12
-10 -10 -6 1 -11 -4 -10 -10 2 -7 -3 -12 -10 -10 -6 1 -11 -4 -10 -10 2 -7 -3
-12 -10 -10 -6 1 -11 -4 -10 -10 2 -7 -3 -12 -10 -10 -6 1 -11 -4 -10 -10 2
-7 -3 -12 -10 -10 -6 1 -11 -4 -10 -10 2 -7 -3 -12 -10 -10 -6 1 -11 -4 -10
-10 2 -7 -3 -12 -10 -10 -6 1 -11 -4 -10 -10 2 -7 -3 -12 -10 -10 -6 1 -11 -4
-10 -10 2 -7 -3 -12 -10 -10 -6 1 -11 -4 -10 -10 2 -7 -3 -12 -10 -10 -6 1
-11 -4 -10 -10 2 -7 -3 -12 -10 -10 -6 1 -11 -4 -10 -10 2 -7 -3 -12 -10 -10
-6 1 -11 -4 -10 -10 2 -7 -3 -12 -10 -10 -6 1 -11 -4 -10 -10 2 -7 -3 -12 -10
-10 -6 1 -11 -3 -10 -8 2 -7 -71 -11 -224 -10 l-228 1 -1 -68 c0 -37 -2 -111
-4 -163 -2 -52 -3 -128 -4 -168 -1 -53 -4 -71 -13 -66 -7 5 -8 3 -2 -7 12 -20
12 -78 0 -76 -6 1 -10 -3 -9 -9 1 -6 -4 -11 -11 -11 -7 0 -13 10 -12 21 1 20
-5 21 -115 24 l-117 3 -4 40 c-2 22 -2 42 1 45 2 2 51 4 108 4 l103 0 0 90 0
90 -110 0 -110 0 0 35 0 35 119 0 119 0 -3 83 c-2 45 -4 85 -4 90 -1 4 -98 7
-216 7 l-215 0 -2 -331 -3 -331 -86 128 -86 128 29 24 c67 56 88 171 49 258
-41 90 -116 117 -326 118 l-150 1 -3 -347 -2 -347 100 -3 100 -3 0 123 c0 86
3 123 11 120 6 -2 43 -57 83 -123 l72 -119 189 -3 c322 -6 328 -6 331 -25 1
-10 -3 -16 -9 -15 -7 1 -11 -4 -10 -10 2 -7 -3 -12 -10 -10 -6 1 -11 -4 -10
-10 2 -7 -3 -12 -10 -10 -6 1 -11 -4 -10 -10 2 -7 -3 -12 -10 -10 -6 1 -11 -4
-10 -10 2 -7 -3 -12 -10 -10 -6 1 -11 -4 -10 -10 2 -7 -3 -12 -10 -10 -6 1
-11 -4 -10 -10 2 -7 -3 -12 -10 -10 -6 1 -11 -4 -10 -10 2 -7 -3 -12 -10 -10
-6 1 -11 -4 -10 -10 2 -7 -3 -12 -10 -10 -6 1 -11 -4 -10 -10 2 -7 -3 -12 -10
-10 -6 1 -11 -4 -10 -10 2 -7 -3 -12 -10 -10 -6 1 -11 -4 -10 -10 2 -7 -3 -12
-10 -10 -6 1 -11 -4 -10 -10 2 -7 -3 -12 -10 -10 -6 1 -11 -4 -10 -10 2 -7 -3
-12 -10 -10 -6 1 -11 -4 -10 -10 2 -7 -3 -12 -10 -10 -6 1 -11 -4 -10 -10 2
-7 -3 -12 -10 -10 -6 1 -11 -4 -10 -10 2 -7 -3 -12 -10 -10 -6 1 -11 -4 -10
-10 2 -7 -3 -12 -10 -10 -6 1 -11 -4 -10 -10 2 -7 -3 -12 -10 -10 -6 1 -11 -4
-10 -10 2 -7 -3 -12 -10 -10 -6 1 -11 -4 -10 -10 2 -7 -3 -12 -10 -10 -6 1
-11 -4 -10 -10 2 -7 -3 -12 -10 -10 -6 1 -11 -4 -10 -10 2 -7 -3 -12 -10 -10
-6 1 -11 -4 -10 -10 2 -7 -3 -12 -10 -10 -6 1 -11 -4 -10 -10 2 -7 -3 -12 -10
-10 -6 1 -11 -4 -10 -10 2 -7 -3 -12 -10 -10 -6 1 -11 -4 -10 -10 2 -7 -3 -12
-10 -10 -6 1 -11 -4 -10 -10 2 -7 -3 -12 -10 -10 -6 1 -11 -4 -10 -10 2 -7 -3
-12 -10 -10 -6 1 -11 -4 -10 -10 2 -7 -3 -12 -10 -10 -6 1 -11 -4 -10 -10 2
-7 -3 -12 -10 -10 -6 1 -11 -4 -10 -10 2 -7 -3 -12 -10 -10 -6 1 -11 -4 -10
-10 2 -7 -3 -12 -10 -10 -6 1 -11 -4 -10 -10 2 -7 -3 -12 -10 -10 -6 1 -11 -4
-10 -10 2 -7 -3 -12 -10 -10 -6 1 -11 -4 -10 -10 2 -7 -3 -12 -10 -10 -6 1
-11 -4 -10 -10 2 -7 -3 -12 -10 -10 -6 1 -11 -4 -10 -10 2 -7 -3 -12 -10 -10
-6 1 -11 -4 -10 -10 2 -7 -3 -12 -10 -10 -6 1 -11 -4 -10 -10 2 -7 -3 -12 -10
-10 -6 1 -11 -4 -10 -10 2 -7 -3 -12 -10 -10 -6 1 -11 -4 -10 -10 2 -7 -3 -12
-10 -10 -6 1 -11 -4 -10 -10 2 -7 -3 -12 -10 -10 -6 1 -11 -4 -10 -10 2 -7 -3
-12 -10 -10 -6 1 -11 -4 -10 -10 2 -7 -3 -12 -10 -10 -6 1 -11 -4 -10 -10 2
-7 -3 -12 -10 -10 -6 1 -11 -4 -10 -10 2 -7 -3 -12 -10 -10 -6 1 -11 -4 -10
-10 2 -7 -3 -12 -10 -10 -6 1 -11 -4 -10 -10 2 -7 -3 -12 -10 -10 -6 1 -11 -4
-10 -10 2 -7 -3 -12 -10 -10 -6 1 -11 -4 -10 -10 2 -7 -3 -12 -10 -10 -6 1
-11 -4 -10 -10 2 -7 -3 -12 -10 -10 -6 1 -11 -4 -10 -10 2 -7 -3 -12 -10 -10
-6 1 -11 -4 -10 -10 2 -7 -3 -12 -10 -10 -6 1 -11 -3 -10 -9 1 -6 -8 -11 -20
-10 -13 1 -21 -4 -20 -11 2 -7 -3 -12 -10 -10 -6 1 -11 -4 -10 -10 2 -7 -3
-12 -10 -10 -6 1 -11 -4 -10 -10 2 -7 -3 -12 -10 -10 -6 1 -11 -4 -10 -10 2
-7 -3 -12 -10 -10 -6 1 -11 -4 -10 -10 2 -7 -3 -12 -10 -10 -6 1 -11 -4 -10
-10 2 -7 -3 -12 -10 -10 -6 1 -11 -4 -10 -10 2 -7 -3 -12 -10 -10 -6 1 -11 -4
-10 -10 2 -7 -3 -12 -10 -10 -6 1 -11 -4 -10 -10 2 -7 -3 -12 -10 -10 -6 1
-11 -4 -10 -10 2 -7 -3 -12 -10 -10 -6 1 -11 -4 -10 -10 2 -7 -3 -12 -10 -10
-6 1 -11 -4 -10 -10 2 -7 -3 -12 -10 -10 -6 1 -11 -4 -10 -10 2 -7 -3 -12 -10
-10 -6 1 -11 -4 -10 -10 2 -7 -3 -12 -10 -10 -6 1 -11 -4 -10 -10 2 -7 -3 -12
-10 -10 -6 1 -11 -4 -10 -10 2 -7 -3 -12 -10 -10 -6 1 -11 -4 -10 -10 2 -7 -3
-12 -10 -10 -6 1 -11 -4 -10 -10 2 -7 -3 -12 -10 -10 -6 1 -11 -4 -10 -10 2
-7 -3 -12 -10 -10 -6 1 -11 -4 -10 -10 2 -7 -3 -12 -10 -10 -6 1 -11 -4 -10
-10 2 -7 -3 -12 -10 -10 -6 1 -11 -4 -10 -10 2 -7 -3 -12 -10 -10 -6 1 -11 -4
-10 -10 2 -7 -3 -12 -10 -10 -6 1 -11 -4 -10 -10 2 -7 -3 -12 -10 -10 -6 1
-11 -4 -10 -10 2 -7 -3 -12 -10 -10 -6 1 -11 -4 -10 -10 2 -7 -3 -12 -10 -10
-6 1 -11 -3 -10 -10 3 -13 -22 -12 -34 2 -4 4 -3 5 4 1 6 -3 15 -2 18 4 4 6 3
9 -2 8 -4 -2 -9 0 -10 5 -6 17 -2 19 14 6 14 -12 16 -12 8 0 -6 10 -4 12 5 6
9 -6 11 -4 5 5 -5 8 -4 11 3 6 6 -3 14 -2 17 4 4 6 3 9 -2 8 -4 -2 -9 0 -11 5
-5 17 -1 19 15 6 14 -12 16 -12 8 0 -6 10 -4 12 5 6 9 -6 11 -4 5 5 -5 8 -4
11 3 6 6 -3 14 -2 17 4 4 6 3 9 -2 8 -4 -2 -9 0 -10 5 -6 17 -2 19 14 6 14
-12 16 -12 8 0 -6 10 -4 12 5 6 9 -6 11 -4 5 5 -5 8 -4 11 3 6 6 -3 14 -2 17
4 4 6 3 9 -2 8 -4 -2 -9 0 -10 5 -6 17 -2 19 14 6 14 -12 16 -12 8 0 -6 10 -4
12 5 6 9 -6 11 -4 5 5 -5 8 -4 11 3 6 6 -3 14 -2 17 4 4 6 3 9 -2 8 -4 -2 -9
0 -10 5 -6 17 -2 19 14 6 14 -12 16 -12 8 0 -6 10 -4 12 5 6 9 -6 11 -4 5 5
-5 8 -4 11 3 6 6 -3 14 -2 17 4 4 6 3 9 -2 8 -4 -2 -9 0 -10 5 -6 17 -2 19 14
6 14 -12 16 -12 8 0 -6 10 -4 12 5 6 9 -6 11 -4 5 5 -5 8 -4 11 3 6 6 -3 14
-2 17 4 4 6 3 9 -2 8 -4 -2 -9 0 -10 5 -6 17 -2 19 14 6 14 -12 16 -12 8 0 -6
10 -4 12 5 6 9 -6 11 -4 5 5 -5 8 -4 11 3 6 6 -3 14 -2 17 4 4 6 3 9 -2 8 -4
-2 -9 0 -10 5 -6 17 -2 19 14 6 14 -12 16 -12 8 0 -6 10 -4 12 5 6 9 -6 11 -4
5 5 -5 8 -4 11 3 6 6 -3 14 -2 17 4 4 6 3 9 -2 8 -4 -2 -9 0 -10 5 -6 17 -2
19 14 6 14 -12 16 -12 8 0 -6 10 -4 12 5 6 9 -6 11 -4 5 5 -5 8 -4 11 3 6 6
-3 14 -2 17 4 4 6 3 9 -2 8 -4 -2 -9 0 -10 5 -6 17 -2 19 14 6 14 -12 16 -12
8 0 -6 10 -4 12 5 6 9 -6 11 -4 5 5 -5 8 -4 11 3 6 6 -3 14 -2 17 4 4 6 3 9
-2 8 -4 -2 -9 0 -10 5 -6 17 -2 19 14 6 14 -12 16 -12 8 0 -6 10 -4 12 5 6 9
-6 11 -4 5 5 -5 8 -4 11 3 6 6 -3 14 -2 17 4 4 6 3 9 -2 8 -4 -2 -9 0 -10 5
-6 17 -2 19 14 6 14 -12 16 -12 8 0 -6 10 -4 12 5 6 9 -6 11 -4 5 5 -5 8 -4
11 3 6 6 -3 14 -2 17 4 4 6 3 9 -2 8 -4 -2 -9 0 -11 5 -5 17 -1 19 15 6 14
-12 16 -12 8 0 -6 10 -4 12 5 6 9 -6 11 -4 5 5 -5 8 -4 11 3 6 6 -3 14 -2 17
4 4 6 3 9 -2 8 -4 -2 -9 0 -10 5 -6 17 -2 19 14 6 14 -12 16 -12 8 0 -6 10 -4
12 5 6 9 -6 11 -4 5 5 -6 9 -4 11 5 5 9 -6 11 -4 5 5 -6 9 -4 11 5 5 9 -6 11
-4 5 6 -7 12 -6 12 7 1 11 -9 18 -10 23 -2 6 10 -1 14 -18 11 -5 -1 -6 3 -2 9
3 6 11 7 17 4 7 -5 8 -2 3 6 -6 9 -4 11 5 5 9 -6 11 -4 5 6 -7 12 -6 12 7 1
11 -9 18 -10 23 -2 6 10 -1 14 -18 11 -5 -1 -6 3 -2 9 3 6 11 7 17 4 7 -5 8
-2 3 6 -6 9 -4 11 5 5 9 -6 11 -4 5 6 -7 12 -6 12 7 1 11 -9 18 -10 23 -2 6
10 -1 14 -18 11 -5 -1 -6 3 -2 9 3 6 11 7 17 4 7 -5 8 -2 3 6 -6 9 -4 11 5 5
9 -6 11 -4 5 6 -7 12 -6 12 7 1 11 -9 18 -10 23 -2 6 10 -1 14 -18 11 -5 -1
-6 3 -2 9 3 6 11 7 17 4 7 -5 8 -2 3 6 -6 9 -4 11 5 5 9 -6 11 -4 5 6 -7 12
-6 12 7 1 11 -9 18 -10 23 -2 6 10 -1 14 -18 11 -5 -1 -6 3 -2 9 3 6 11 7 17
4 7 -5 8 -2 3 6 -6 9 -4 11 5 5 9 -6 11 -4 5 6 -7 12 -6 12 7 1 11 -9 18 -10
23 -2 6 10 -1 14 -18 11 -5 -1 -6 3 -2 9 3 6 11 7 17 4 7 -5 8 -2 3 6 -6 9 -4
11 5 5 9 -6 11 -4 5 6 -7 12 -6 12 7 1 11 -9 18 -10 23 -2 6 10 -1 14 -18 11
-5 -1 -6 3 -2 9 3 6 11 7 17 4 7 -5 8 -2 3 6 -6 9 -4 11 5 5 9 -6 11 -4 5 6
-7 12 -6 12 7 1 11 -9 18 -10 23 -2 6 10 -1 14 -18 11 -5 -1 -6 3 -2 9 3 6 11
7 17 4 7 -5 8 -2 3 6 -6 9 -4 11 5 5 9 -6 11 -4 5 6 -7 12 -6 12 7 1 11 -9 18
-10 23 -2 6 10 -1 14 -18 11 -5 -1 -6 3 -2 9 3 6 11 7 17 4 7 -5 8 -2 3 6 -6
9 -4 11 5 5 9 -6 11 -4 5 6 -7 12 -6 12 7 1 11 -9 18 -10 23 -2 6 10 -1 14
-18 11 -5 -1 -6 3 -2 9 3 6 11 7 17 4 7 -5 8 -2 3 6 -6 9 -4 11 5 5 9 -6 11
-4 5 6 -7 12 -6 12 7 1 11 -9 18 -10 23 -2 6 10 -1 14 -18 11 -5 -1 -6 3 -2 9
3 6 11 7 17 4 7 -5 8 -2 3 6 -6 9 -4 11 5 5 9 -6 11 -4 5 6 -7 12 -6 12 7 1
11 -9 18 -10 23 -2 6 10 -1 14 -18 11 -5 -1 -6 3 -2 9 3 6 11 7 17 4 7 -5 8
-2 3 6 -6 9 -4 11 5 5 9 -6 11 -4 5 6 -7 12 -6 12 7 1 11 -9 18 -10 23 -2 6
10 -1 14 -18 11 -5 -1 -6 3 -2 9 3 6 11 7 17 4 7 -5 8 -2 3 6 -6 9 -4 11 5 5
9 -6 11 -4 5 6 -7 12 -6 12 7 1 11 -9 18 -10 23 -2 6 10 -1 14 -18 11 -5 -1
-6 3 -2 9 3 6 11 7 17 4 7 -5 8 -2 3 6 -6 9 -4 11 5 5 9 -6 11 -4 5 6 -7 12
-6 12 7 1 11 -9 18 -10 23 -2 6 10 -1 14 -18 11 -5 -1 -6 3 -2 9 3 6 11 7 17
4 7 -5 8 -2 3 6 -6 9 -4 11 5 5 9 -6 11 -4 5 6 -7 12 -6 12 7 1 11 -9 18 -10
23 -2 6 10 -1 14 -18 11 -5 -1 -6 3 -2 9 3 6 11 7 17 4 7 -5 8 -2 3 6 -6 9 -4
11 5 5 9 -6 11 -4 5 6 -7 12 -6 12 7 1 11 -9 18 -10 23 -2 6 10 -1 14 -18 11
-5 -1 -6 3 -2 9 3 6 11 7 17 4 7 -5 8 -2 3 6 -6 9 -4 11 5 5 9 -6 11 -4 5 6
-7 12 -6 12 7 1 11 -9 18 -10 23 -2 6 10 -1 14 -18 11 -5 -1 -6 3 -2 9 3 6 11
7 17 4 7 -5 8 -2 3 6 -6 9 -4 11 5 5 9 -6 11 -4 5 6 -7 12 -6 12 7 1 11 -9 18
-10 23 -2 6 10 -1 14 -18 11 -5 -1 -6 3 -2 9 3 6 11 7 17 4 7 -5 8 -2 3 6 -6
9 -4 11 5 5 9 -6 11 -4 5 6 -7 12 -6 12 7 1 11 -9 18 -10 23 -2 6 10 -1 14
-18 11 -5 -1 -6 3 -2 9 3 6 11 7 17 4 7 -5 8 -2 3 6 -6 9 -4 11 5 5 9 -6 11
-4 5 6 -7 12 -6 12 7 1 11 -9 18 -10 23 -2 6 10 -1 14 -18 11 -5 -1 -6 3 -2 9
3 6 11 7 17 4 7 -5 8 -2 3 6 -6 9 -4 11 5 5 9 -6 11 -4 5 6 -7 12 -6 12 7 1
11 -9 18 -10 23 -2 6 10 -1 14 -18 11 -5 -1 -6 3 -2 9 3 6 11 7 17 4 7 -5 8
-2 3 6 -6 9 -4 11 5 5 9 -6 11 -4 5 6 -7 12 -6 12 7 1 11 -9 18 -10 23 -2 6
10 -1 14 -18 11 -5 -1 -6 3 -2 9 3 6 11 7 17 4 7 -5 8 -2 3 6 -6 9 -4 11 5 5
9 -6 11 -4 5 6 -7 12 -6 12 7 1 11 -9 18 -10 23 -2 6 10 -1 14 -18 11 -5 -1
-6 3 -2 9 3 6 11 7 17 4 7 -5 8 -2 3 6 -6 9 -4 11 5 5 9 -6 11 -4 5 6 -7 12
-6 12 7 1 11 -9 18 -10 23 -2 6 10 -1 14 -18 11 -5 -1 -6 3 -2 9 3 6 11 7 17
4 7 -5 8 -2 3 6 -6 9 -4 11 5 5 9 -6 11 -4 5 6 -7 12 -6 12 7 1 11 -9 18 -10
23 -2 6 10 -1 14 -18 11 -5 -1 -6 3 -2 9 3 6 11 7 17 4 7 -5 8 -2 3 6 -5 8 -4
11 2 7 5 -3 10 0 10 7 0 7 -6 13 -13 13 -7 0 -12 -5 -11 -11 1 -6 -4 -10 -10
-9 -7 2 -12 -3 -10 -10 1 -6 -4 -11 -10 -10 -7 2 -12 -3 -10 -10 1 -6 -4 -11
-10 -10 -7 2 -12 -3 -10 -10 1 -6 -4 -11 -10 -10 -7 2 -12 -3 -10 -10 1 -6 -4
-11 -10 -10 -7 2 -12 -3 -10 -10 1 -6 -4 -11 -10 -10 -7 2 -12 -3 -10 -10 1
-6 -4 -11 -10 -10 -7 2 -12 -3 -10 -10 1 -6 -4 -11 -10 -10 -7 2 -12 -3 -10
-10 1 -6 -4 -11 -10 -10 -7 2 -12 -3 -10 -10 1 -6 -4 -11 -10 -10 -7 2 -12 -3
-10 -10 1 -6 -4 -11 -10 -10 -7 2 -12 -3 -10 -10 1 -6 -4 -11 -10 -10 -7 2
-12 -3 -10 -10 1 -6 -4 -11 -10 -10 -7 2 -12 -3 -10 -10 1 -6 -4 -11 -10 -10
-7 2 -12 -3 -10 -10 1 -6 -4 -11 -10 -10 -7 2 -12 -3 -10 -10 1 -6 -4 -11 -10
-10 -7 2 -12 -3 -10 -10 1 -6 -4 -11 -10 -10 -7 2 -12 -3 -10 -10 1 -6 -4 -11
-10 -10 -7 2 -12 -3 -10 -10 1 -6 -4 -11 -10 -10 -7 2 -12 -3 -10 -10 1 -6 -4
-11 -10 -10 -7 2 -12 -3 -10 -10 1 -6 -4 -11 -10 -10 -7 2 -12 -3 -10 -10 1
-6 -4 -11 -10 -10 -7 2 -12 -3 -10 -10 1 -6 -4 -11 -10 -10 -7 2 -12 -3 -10
-10 1 -6 -4 -11 -10 -10 -7 2 -12 -3 -10 -10 1 -6 -4 -11 -10 -10 -7 2 -12 -3
-10 -10 1 -6 -4 -11 -10 -10 -7 2 -12 -3 -10 -10 1 -6 -4 -11 -10 -10 -7 2
-12 -3 -10 -10 1 -6 -4 -11 -10 -10 -7 2 -12 -3 -10 -10 1 -6 -4 -11 -10 -10
-7 2 -12 -3 -10 -10 1 -6 -4 -11 -10 -10 -7 2 -12 -3 -10 -10 1 -6 -4 -11 -10
-10 -7 2 -12 -3 -10 -10 1 -6 -4 -11 -10 -10 -7 2 -12 -3 -10 -10 1 -6 -4 -11
-10 -10 -7 2 -12 -3 -10 -10 1 -6 -4 -11 -10 -10 -7 2 -12 -3 -10 -10 1 -6 -4
-11 -10 -10 -7 2 -12 -3 -10 -10 1 -6 -4 -11 -10 -10 -7 2 -12 -3 -10 -10 1
-6 -4 -11 -10 -10 -7 2 -12 -3 -10 -10 1 -6 -4 -11 -10 -10 -7 2 -12 -3 -10
-10 1 -6 -4 -11 -10 -10 -7 2 -12 -3 -10 -10 1 -6 -4 -11 -10 -10 -7 2 -12 -3
-10 -10 1 -6 -4 -11 -10 -10 -7 2 -12 -3 -10 -10 1 -6 -4 -11 -10 -10 -7 2
-12 -3 -10 -10 1 -6 -4 -11 -10 -10 -7 2 -12 -3 -10 -10 1 -6 -4 -11 -10 -10
-7 2 -12 -3 -10 -10 1 -6 -4 -11 -10 -10 -7 2 -12 -3 -10 -10 1 -6 -4 -11 -10
-10 -7 2 -12 -3 -10 -10 1 -6 -4 -11 -10 -10 -7 2 -12 -3 -10 -10 1 -6 -4 -11
-10 -10 -7 2 -12 -3 -10 -10 1 -6 -4 -11 -10 -10 -7 2 -12 -3 -10 -10 1 -6 -4
-11 -10 -10 -7 2 -12 -3 -10 -10 1 -6 -4 -11 -10 -10 -7 2 -12 -3 -10 -10 1
-7 -7 -12 -20 -11 -12 1 -21 -4 -20 -10 1 -6 -4 -10 -10 -9 -7 2 -12 -3 -10
-10 1 -6 -4 -11 -10 -10 -7 2 -12 -3 -10 -10 1 -6 -4 -11 -10 -10 -7 2 -12 -3
-10 -10 1 -6 -4 -11 -10 -10 -7 2 -12 -3 -10 -10 1 -6 -4 -11 -10 -10 -7 2
-12 -3 -10 -10 1 -6 -4 -11 -10 -10 -7 2 -12 -3 -10 -10 1 -6 -4 -11 -10 -10
-7 2 -12 -3 -10 -10 1 -6 -4 -11 -10 -10 -7 2 -12 -3 -10 -10 1 -6 -4 -11 -10
-10 -7 2 -12 -3 -10 -10 1 -6 -4 -11 -10 -10 -7 2 -12 -3 -10 -10 1 -6 -4 -11
-10 -10 -7 2 -12 -3 -10 -10 1 -6 -4 -11 -10 -10 -7 2 -12 -3 -10 -10 1 -6 -4
-11 -10 -10 -7 2 -12 -3 -10 -10 1 -6 -4 -11 -10 -10 -7 2 -12 -3 -10 -10 1
-6 -4 -11 -10 -10 -7 2 -12 -3 -10 -10 1 -6 -4 -11 -10 -10 -7 2 -12 -3 -10
-10 1 -6 -4 -11 -10 -10 -7 2 -12 -3 -10 -10 1 -6 -4 -11 -10 -10 -7 2 -12 -3
-10 -10 1 -6 -4 -11 -10 -10 -7 2 -12 -3 -10 -10 1 -6 -4 -11 -10 -10 -7 2
-12 -3 -10 -10 1 -6 -4 -11 -10 -10 -7 2 -12 -3 -10 -10 1 -6 -4 -11 -10 -10
-7 2 -12 -3 -10 -10 1 -6 -4 -11 -10 -10 -7 2 -12 -3 -10 -10 1 -6 -4 -11 -10
-10 -7 2 -12 -3 -10 -10 1 -6 -4 -11 -10 -10 -7 2 -12 -3 -10 -10 1 -6 -4 -11
-10 -10 -7 2 -12 -3 -10 -10 1 -6 -4 -11 -10 -10 -7 2 -12 -3 -10 -10 1 -6 -4
-11 -10 -10 -7 2 -12 -3 -10 -10 1 -6 -4 -11 -10 -10 -7 2 -12 -3 -10 -10 1
-6 -3 -11 -9 -10 -6 1 -11 -4 -11 -12 0 -8 4 -12 8 -9 10 6 23 -16 25 -42 1
-18 -4 -21 -28 -19 -25 2 -27 1 -16 -13 10 -12 10 -14 1 -8 -10 5 -13 -9 -13
-58 0 -64 -1 -66 -25 -66 -22 0 -25 4 -26 38 -1 20 -1 40 0 44 0 5 -2 7 -7 5
-4 -1 -7 3 -7 8 0 6 3 9 6 8 3 -1 6 4 6 11 0 7 -6 13 -13 13 -7 0 -12 -5 -11
-11 1 -6 -4 -10 -10 -9 -7 2 -12 -3 -10 -10 1 -6 -4 -11 -10 -10 -7 2 -12 -3
-10 -10 1 -6 -3 -11 -9 -10 -6 1 -11 -4 -11 -12 0 -8 4 -12 8 -10 6 4 19 -7
31 -25 1 -3 -4 -13 -12 -21 -17 -19 -51 -19 -74 1 -15 11 -17 11 -14 -1 2 -8
-3 -13 -9 -12 -7 2 -12 -3 -10 -10 1 -6 -4 -11 -10 -10 -7 2 -12 -3 -10 -10 1
-6 -4 -11 -10 -10 -7 2 -12 -3 -10 -10 1 -6 -4 -11 -10 -10 -7 2 -12 -3 -10
-10 1 -6 -4 -11 -10 -10 -7 2 -12 -3 -10 -10 1 -6 -4 -11 -10 -10 -7 2 -12 -3
-10 -10 1 -6 -4 -11 -10 -10 -7 2 -12 -3 -10 -10 1 -6 -4 -11 -10 -10 -7 2
-12 -3 -10 -10 1 -6 -4 -11 -11 -9 -6 1 -11 -4 -10 -10 2 -7 -3 -12 -10 -10
-6 1 -11 -4 -10 -10 2 -7 -3 -12 -10 -10 -6 1 -11 -4 -10 -10 2 -7 -3 -12 -10
-10 -6 1 -11 -4 -10 -10 2 -7 -3 -12 -10 -10 -6 1 -11 -4 -10 -10 2 -7 -3 -12
-10 -10 -6 1 -11 -4 -10 -10 2 -7 -3 -12 -10 -10 -6 1 -11 -4 -10 -10 2 -7 -3
-12 -10 -10 -6 1 -11 -4 -10 -10 2 -7 -3 -12 -10 -10 -8 1 -11 -2 -7 -8 5 -8
11 -8 20 0 9 8 15 8 20 1 4 -8 1302 -11 4216 -11 l4209 0 0 2380 0 2381 -1855
-1 c-1432 -1 -1854 -4 -1852 -13z m53 -6 c8 7 14 7 19 -1 4 -6 1 -9 -7 -8 -7
2 -12 -3 -10 -9 1 -7 -4 -12 -10 -10 -7 1 -12 -4 -10 -10 1 -7 -4 -12 -10 -10
-7 1 -12 -4 -10 -10 1 -7 -4 -12 -10 -10 -7 1 -12 -4 -10 -10 1 -7 -4 -12 -10
-10 -7 1 -12 -4 -10 -10 1 -7 -4 -12 -10 -10 -7 1 -12 -4 -10 -10 1 -7 -4 -12
-10 -10 -7 1 -12 -4 -10 -10 1 -7 -4 -12 -10 -10 -7 1 -12 -4 -10 -10 1 -7 -4
-12 -10 -10 -7 1 -12 -4 -10 -10 1 -7 -4 -12 -10 -10 -7 1 -12 -4 -10 -10 1
-7 -4 -12 -10 -10 -7 1 -12 -4 -10 -10 1 -7 -4 -12 -10 -10 -7 1 -12 -4 -10
-10 1 -7 -4 -12 -10 -10 -7 1 -12 -4 -10 -10 1 -7 -4 -12 -10 -10 -7 1 -12 -4
-10 -10 1 -7 -4 -12 -10 -10 -7 1 -12 -4 -10 -10 1 -7 -4 -12 -10 -10 -7 1
-12 -4 -10 -11 1 -6 -4 -11 -10 -10 -7 2 -12 -3 -10 -10 1 -6 -4 -11 -10 -10
-7 2 -12 -3 -10 -10 1 -6 -4 -11 -10 -10 -7 2 -12 -3 -10 -10 1 -6 -4 -11 -10
-10 -7 2 -12 -3 -10 -10 1 -6 -4 -11 -10 -10 -7 2 -12 -3 -10 -10 1 -6 -4 -11
-10 -10 -7 2 -12 -3 -10 -10 1 -6 -4 -11 -10 -10 -7 2 -12 -3 -10 -10 1 -6 -4
-11 -10 -10 -7 2 -12 -3 -10 -10 1 -6 -4 -11 -10 -10 -7 2 -12 -3 -10 -10 1
-6 -4 -11 -10 -10 -7 2 -12 -3 -10 -10 1 -6 -4 -11 -10 -10 -7 2 -12 -3 -10
-10 1 -6 -4 -11 -10 -10 -7 2 -12 -3 -10 -10 1 -6 -4 -11 -10 -10 -7 2 -12 -3
-10 -10 1 -6 -4 -11 -10 -10 -7 2 -12 -3 -11 -9 2 -7 -3 -12 -10 -10 -6 1 -11
-4 -10 -10 2 -7 -3 -12 -10 -10 -6 1 -11 -4 -10 -10 2 -7 -3 -12 -10 -10 -6 1
-11 -4 -10 -10 2 -7 -3 -12 -10 -10 -6 1 -11 -4 -10 -10 2 -7 -3 -12 -10 -10
-6 1 -11 -4 -10 -10 2 -7 -3 -12 -10 -10 -6 1 -11 -4 -10 -10 2 -7 -3 -12 -10
-10 -6 1 -11 -4 -10 -10 2 -7 -3 -12 -10 -10 -6 1 -11 -4 -10 -10 2 -7 -3 -12
-10 -10 -6 1 -11 -4 -10 -10 2 -7 -3 -12 -10 -10 -6 1 -11 -4 -10 -10 2 -7 -3
-12 -10 -10 -6 1 -11 -4 -10 -10 2 -7 -3 -12 -10 -10 -6 1 -11 -4 -10 -10 2
-7 -3 -12 -10 -10 -6 1 -11 -4 -10 -10 2 -7 -3 -12 -10 -10 -6 1 -11 -4 -10
-10 2 -7 -3 -12 -10 -10 -6 1 -11 -4 -10 -10 2 -7 -3 -12 -10 -10 -6 1 -11 -4
-10 -10 2 -7 -3 -12 -10 -10 -6 1 -11 -4 -10 -10 2 -7 -3 -12 -10 -10 -6 1
-11 -4 -10 -10 2 -7 -3 -12 -10 -10 -6 1 -11 -4 -10 -10 2 -7 -3 -12 -10 -10
-6 1 -11 -4 -10 -10 2 -7 -3 -12 -10 -10 -6 1 -11 -4 -10 -10 2 -7 -3 -12 -10
-10 -6 1 -11 -4 -10 -10 2 -7 -3 -12 -10 -10 -6 1 -11 -4 -10 -10 2 -7 -3 -12
-10 -10 -6 1 -11 -3 -10 -9 1 -6 -8 -11 -20 -10 -13 1 -21 -4 -20 -11 2 -7 -3
-12 -10 -10 -6 1 -11 -4 -10 -10 2 -7 -3 -12 -10 -10 -6 1 -11 -4 -10 -10 2
-7 -3 -12 -10 -10 -6 1 -11 -4 -9 -11 1 -6 -4 -11 -10 -10 -7 2 -12 -3 -10
-10 1 -6 -4 -11 -10 -10 -7 2 -12 -3 -10 -10 1 -6 -4 -11 -10 -10 -7 2 -12 -3
-10 -10 1 -6 -4 -11 -10 -10 -7 2 -12 -3 -10 -10 1 -6 -4 -11 -10 -10 -7 2
-12 -3 -10 -10 1 -6 -4 -11 -10 -10 -7 2 -12 -3 -10 -10 1 -6 -4 -11 -10 -10
-7 2 -12 -3 -10 -10 1 -6 -4 -11 -10 -10 -7 2 -12 -3 -10 -10 1 -6 -4 -11 -10
-10 -7 2 -12 -3 -10 -10 1 -6 -4 -11 -10 -10 -7 2 -12 -3 -10 -10 1 -6 -4 -11
-10 -10 -7 2 -12 -3 -10 -10 1 -6 -4 -11 -10 -10 -7 2 -12 -3 -10 -10 1 -6 -4
-11 -10 -10 -7 2 -12 -3 -10 -10 1 -6 -4 -11 -10 -10 -7 2 -12 -3 -10 -10 1
-6 -4 -11 -10 -10 -7 2 -12 -3 -10 -10 1 -6 -4 -11 -10 -10 -7 2 -12 -3 -10
-10 1 -6 -4 -11 -10 -10 -7 2 -12 -3 -10 -10 1 -6 -4 -11 -10 -10 -7 2 -12 -3
-10 -10 1 -6 -4 -11 -10 -10 -7 2 -12 -3 -10 -10 1 -6 -4 -11 -10 -10 -7 2
-12 -3 -10 -10 1 -6 -4 -11 -10 -10 -7 2 -12 -3 -10 -10 1 -6 -4 -11 -10 -10
-7 2 -12 -3 -10 -10 1 -6 -4 -11 -10 -10 -7 2 -12 -3 -10 -10 1 -6 -4 -11 -10
-10 -7 2 -12 -3 -10 -10 1 -6 -4 -11 -10 -10 -7 2 -12 -3 -10 -10 1 -6 -4 -11
-10 -10 -7 2 -12 -3 -10 -10 1 -6 -4 -11 -10 -10 -7 2 -12 -3 -10 -10 1 -6 -4
-11 -10 -10 -7 2 -12 -3 -10 -10 1 -6 -4 -11 -10 -10 -7 2 -12 -3 -10 -10 1
-6 -4 -11 -10 -10 -7 2 -12 -3 -10 -10 1 -6 -4 -11 -10 -10 -7 2 -11 -4 -10
-12 2 -8 0 -12 -4 -8 -4 4 -13 3 -21 -3 -7 -6 -13 -8 -13 -4 0 4 -6 2 -14 -4
-8 -7 -13 -21 -11 -31 2 -11 -1 -19 -8 -17 -7 1 -11 -4 -9 -11 1 -6 -4 -11
-10 -10 -7 2 -11 -4 -10 -12 2 -8 0 -11 -4 -7 -10 10 -13 78 -4 72 3 -2 183
173 400 390 217 217 397 392 400 390 3 -2 242 232 530 520 333 333 528 521
534 515 6 -6 14 -6 22 1z m-3034 -1864 c68 -33 98 -81 98 -157 0 -79 -28 -124
-109 -177 -2 -1 35 -57 81 -125 46 -68 88 -129 92 -135 5 -10 -11 -13 -73 -13
l-80 0 -73 120 c-69 113 -75 120 -105 120 l-33 0 0 -120 0 -120 -70 0 -70 0 0
321 0 322 144 -5 c130 -5 150 -8 198 -31z m608 -27 l0 -60 -115 0 -115 0 0
-65 0 -65 110 0 110 0 0 -60 0 -60 -110 0 -110 0 0 -75 0 -74 113 -3 112 -3 3
-57 3 -58 -186 0 -185 0 0 320 0 320 185 0 185 0 0 -60z m500 0 l0 -60 -115 0
-115 0 0 -65 0 -65 105 0 105 0 0 -60 0 -60 -105 0 -105 0 0 -75 0 -74 113 -3
112 -3 3 -57 3 -58 -186 0 -185 0 0 320 0 320 185 0 185 0 0 -60z m381 -163
c37 -120 70 -226 74 -235 4 -11 34 68 84 218 l77 235 94 0 95 0 3 -317 2 -318
-71 0 -71 0 4 231 4 231 -76 -229 -77 -228 -66 -3 -66 -3 -40 128 c-22 70 -53
171 -70 223 l-30 95 0 -222 -1 -223 -65 0 -65 0 0 320 0 321 97 -3 96 -3 68
-218z m949 163 l0 -60 -115 0 -115 0 0 -65 0 -65 105 0 105 0 0 -60 0 -60
-105 0 -105 0 0 -75 0 -74 113 -3 112 -3 3 -57 3 -58 -186 0 -185 0 0 320 0
320 185 0 185 0 0 -60z m430 -170 c73 -126 134 -230 135 -230 0 0 -1 104 -3
230 l-5 230 67 0 66 0 0 -320 0 -320 -89 0 -89 0 -132 230 c-73 127 -133 230
-134 230 0 0 0 -103 2 -230 l3 -230 -65 0 -66 0 0 320 0 320 89 0 89 0 132
-230z m838 168 l3 -58 -86 0 -85 0 0 -260 0 -260 -75 0 -75 0 0 260 0 260 -85
0 -85 0 0 60 0 60 243 -2 242 -3 3 -57z m-2671 -105 c0 -6 -5 -11 -11 -10 -6
1 -10 -4 -8 -10 1 -7 -4 -12 -10 -10 -7 1 -12 -3 -11 -8 1 -6 -18 -11 -43 -11
-43 0 -44 1 -44 31 l0 32 63 -1 c43 -1 64 -5 64 -13z m4948 -1523 c4 -6 32
-24 63 -40 31 -16 77 -42 101 -59 36 -24 48 -28 64 -19 13 7 22 7 30 -1 8 -8
6 -11 -7 -11 -10 0 -31 -9 -47 -21 l-29 -20 0 -135 0 -134 40 0 40 0 0 150 0
150 31 0 c35 0 36 -23 1 -28 -19 -3 -22 -10 -22 -48 0 -33 4 -46 18 -51 25
-10 27 -15 27 -84 0 -54 -3 -64 -19 -67 -16 -3 -18 2 -15 47 2 28 1 51 -3 51
-5 0 -8 -25 -8 -55 0 -52 1 -55 25 -55 14 0 25 -4 25 -9 0 -5 8 -11 18 -13 14
-3 17 -15 17 -76 l0 -72 -31 0 c-30 0 -32 -3 -32 -34 0 -18 -5 -43 -11 -54 -7
-13 -7 -31 -1 -51 5 -20 5 -42 -1 -57 -5 -14 -9 -40 -9 -59 l0 -33 -77 -6
c-127 -10 -145 -9 -203 13 -30 12 -67 21 -83 21 -21 0 -33 8 -48 34 -11 19
-36 46 -55 61 -24 18 -33 32 -29 44 7 24 -55 103 -77 98 -11 -3 -18 3 -21 19
-6 31 -2 34 53 34 46 0 47 1 47 33 0 17 3 44 5 60 6 33 1 35 -13 5 -9 -23 -9
-23 -6 2 3 24 2 25 -46 21 -50 -3 -50 -3 -43 24 4 15 24 50 45 79 21 28 46 66
55 84 9 18 21 30 26 27 6 -3 7 1 4 9 -5 12 2 16 27 17 32 2 32 2 6 6 -28 4
-29 5 -22 56 6 44 14 57 46 85 22 19 39 40 39 47 0 22 93 35 105 15z m-795
-50 c0 -25 -4 -30 -25 -30 -14 0 -28 7 -31 15 -10 25 4 45 31 45 21 0 25 -5
25 -30z m-5780 -4 c0 -2 -8 -10 -17 -17 -16 -13 -17 -12 -4 4 13 16 21 21 21
13z m4169 -27 c32 -30 23 -64 -45 -166 -63 -95 -106 -126 -133 -98 -14 15 -14
18 -1 23 49 17 173 203 151 225 -15 15 -114 -16 -178 -55 -72 -43 -192 -170
-226 -238 -61 -122 -24 -158 183 -175 134 -11 158 -16 194 -40 19 -13 47 -25
62 -27 15 -2 30 -9 32 -17 3 -8 0 -11 -7 -7 -22 14 -49 -4 -55 -39 -8 -42 -91
-135 -152 -171 -52 -30 -84 -21 -84 24 0 37 80 127 149 167 87 51 69 62 -125
75 -182 12 -257 54 -257 142 0 121 194 336 346 384 66 20 120 17 146 -7z
m1611 -69 c0 -25 -4 -30 -25 -30 -14 0 -28 7 -31 15 -10 25 4 45 31 45 21 0
25 -5 25 -30z m1039 -45 c1 -29 -2 -45 -10 -45 -7 0 -10 13 -7 35 2 19 0 35
-4 35 -4 0 -8 -18 -8 -40 0 -31 4 -40 18 -40 14 0 15 -2 2 -10 -8 -5 -24 -9
-35 -9 -11 0 -14 3 -7 6 15 6 16 69 0 79 -7 5 -5 11 7 21 31 22 41 15 44 -32z
m61 -25 c0 -29 -4 -40 -15 -40 -11 0 -15 11 -15 40 0 29 4 40 15 40 11 0 15
-11 15 -40z m-113 -17 c-3 -10 -5 -2 -5 17 0 19 2 27 5 18 2 -10 2 -26 0 -35z
m-987 -13 c0 -25 -4 -30 -25 -30 -14 0 -28 7 -31 15 -10 25 4 45 31 45 21 0
25 -5 25 -30z m-1333 -36 l-5 -45 72 1 c116 2 126 1 126 -15 0 -11 -20 -15
-102 -17 l-103 -3 -12 -75 c-14 -89 -16 -220 -4 -272 7 -28 6 -38 -3 -38 -22
0 -36 49 -36 128 -1 68 -2 74 -13 54 -7 -12 -17 -19 -22 -15 -4 4 -5 2 -1 -4
16 -28 -52 -133 -85 -133 -28 0 -39 32 -39 107 0 75 10 99 34 90 13 -5 14 -12
6 -32 -15 -40 -13 -125 3 -125 21 0 109 191 131 283 6 27 6 27 -36 21 -24 -3
-67 -10 -97 -16 -37 -7 -56 -7 -64 1 -17 17 -5 22 102 39 l101 16 0 32 c0 46
9 64 32 64 18 0 20 -5 15 -46z m629 24 c-24 -77 -46 -181 -52 -233 l-5 -60 21
33 c22 32 40 42 40 22 0 -6 -14 -37 -30 -70 -17 -33 -26 -60 -22 -60 11 0 88
55 97 69 8 14 25 14 25 1 0 -18 -88 -99 -115 -106 -25 -6 -27 -10 -22 -43 3
-20 8 -44 12 -53 5 -12 3 -18 -5 -18 -29 0 -39 35 -40 135 0 99 -1 100 -17 67
-18 -38 -67 -82 -90 -82 -23 0 -53 30 -53 52 0 22 28 80 44 90 18 12 25 9 37
-13 14 -27 -1 -65 -30 -74 -25 -8 -27 -23 -4 -32 23 -9 75 53 103 125 12 31
33 101 46 156 28 112 29 116 51 116 11 0 14 -6 9 -22z m290 -5 c-33 -85 -56
-471 -28 -480 17 -6 15 -23 -4 -23 -26 0 -44 63 -44 157 l0 88 -28 -60 c-16
-33 -37 -67 -47 -75 -15 -13 -19 -12 -37 10 -14 17 -18 36 -16 73 4 74 28 75
28 2 0 -50 2 -56 15 -45 29 24 115 251 115 303 0 43 17 77 35 71 9 -4 14 -13
11 -21z m1454 -33 c0 -16 -4 -30 -10 -30 -5 0 -10 14 -10 30 0 17 5 30 10 30
6 0 10 -13 10 -30z m-40 -10 c0 -16 -4 -30 -10 -30 -5 0 -10 14 -10 30 0 17 5
30 10 30 6 0 10 -13 10 -30z m-1966 -67 c-3 -32 -10 -85 -15 -118 -15 -103
-11 -277 7 -303 18 -26 13 -38 -11 -28 -26 10 -35 53 -35 174 l0 117 -21 -35
c-53 -89 -104 -113 -135 -65 -16 24 -18 25 -35 9 -17 -16 -17 -17 3 -45 18
-24 20 -32 10 -54 -22 -47 -96 -60 -114 -20 -9 21 -7 30 16 65 14 22 22 40 16
40 -5 0 -17 11 -26 25 -33 51 13 145 71 145 17 0 25 -5 23 -12 -3 -7 -11 -13
-18 -13 -16 0 -47 -42 -55 -75 -3 -15 0 -33 8 -44 14 -19 16 -18 60 18 26 21
49 46 52 56 13 42 65 29 65 -16 0 -16 -10 -30 -28 -42 -28 -17 -33 -42 -7 -42
37 0 135 183 135 252 0 39 12 68 26 68 11 0 13 -12 8 -57z m966 27 c0 -25 -4
-30 -25 -30 -14 0 -28 7 -31 15 -10 25 4 45 31 45 21 0 25 -5 25 -30z m1025 4
c13 -5 14 -8 3 -15 -10 -7 -10 -9 0 -9 7 0 12 -13 12 -30 0 -20 -5 -30 -15
-30 -10 0 -15 10 -15 29 0 17 -5 33 -10 36 -6 4 -8 11 -5 16 7 11 8 11 30 3z
m-25 -56 c0 -23 -3 -29 -9 -19 -8 12 -4 51 5 51 2 0 4 -15 4 -32z m140 -25 c0
-7 -4 -13 -10 -13 -5 0 -10 12 -10 28 0 21 2 24 10 12 5 -8 10 -21 10 -27z
m-1140 -23 c0 -25 -4 -30 -25 -30 -14 0 -28 7 -31 15 -10 25 4 45 31 45 21 0
25 -5 25 -30z m530 -24 c0 -18 -35 -27 -49 -13 -18 18 -12 27 19 27 19 0 30
-5 30 -14z m-94 -104 c19 -143 20 -141 -15 -108 -27 26 -33 27 -62 17 -62 -22
-67 -18 -74 62 -4 39 -7 77 -7 82 0 10 134 56 141 49 3 -2 10 -48 17 -102z
m-1946 83 c0 -8 -7 -15 -15 -15 -8 0 -15 7 -15 15 0 8 7 15 15 15 8 0 15 -7
15 -15z m925 6 c7 -12 -12 -24 -25 -16 -11 7 -4 25 10 25 5 0 11 -4 15 -9z
m1868 -17 c67 -26 69 -27 64 -58 -3 -17 -9 -50 -12 -73 -7 -47 -9 -47 -74 -32
-39 9 -46 7 -67 -12 -23 -22 -24 -22 -24 -3 0 11 5 47 10 80 6 32 13 74 16 92
3 17 8 32 12 32 4 0 37 -12 75 -26z m-1635 -16 c20 -20 14 -55 -13 -76 -14
-11 -25 -25 -25 -31 0 -31 72 8 110 61 28 38 30 39 30 16 0 -38 -58 -98 -102
-105 -24 -3 -43 -1 -53 7 -22 18 -19 77 6 111 23 32 29 35 47 17z m352 -28 c0
-25 -4 -30 -25 -30 -14 0 -28 7 -31 15 -10 25 4 45 31 45 21 0 25 -5 25 -30z
m530 11 c0 -22 -55 -27 -64 -6 -4 12 3 15 29 15 19 0 35 -4 35 -9z m-6882 -93
c-2 -7 7 -17 20 -23 15 -7 22 -18 22 -37 0 -25 4 -28 33 -28 47 0 57 -15 57
-87 0 -61 -1 -63 -25 -63 -24 0 -25 3 -25 56 0 47 -3 55 -17 52 -14 -2 -19
-15 -21 -56 -3 -48 -5 -52 -28 -52 -24 0 -24 1 -24 94 0 72 -4 97 -15 106 -14
12 -14 15 1 31 20 22 25 24 22 7z m6352 -23 c0 -21 -5 -25 -30 -25 -25 0 -30
4 -30 25 0 21 5 25 30 25 25 0 30 -4 30 -25z m-5520 -38 c0 -32 1 -33 34 -29
45 5 66 -24 66 -95 0 -50 -2 -53 -24 -53 -23 0 -25 4 -28 53 -3 44 -6 52 -23
52 -17 0 -20 -8 -23 -52 -3 -49 -5 -53 -28 -53 -24 0 -24 0 -24 105 l0 105 25
0 c22 0 25 -4 25 -33z m1350 -72 l0 -105 -25 0 c-25 0 -25 0 -25 98 0 54 3
102 7 105 3 4 15 7 25 7 16 0 18 -10 18 -105z m-1058 65 c26 -32 24 -119 -2
-147 -27 -30 -71 -37 -113 -19 -29 11 -38 23 -47 54 -13 52 5 111 40 130 35
18 101 8 122 -18z m453 20 c61 -23 50 -108 -18 -124 -32 -8 -37 -13 -37 -38 0
-23 -4 -28 -25 -28 -25 0 -25 0 -25 93 0 52 3 97 7 100 10 10 68 8 98 -3z
m5175 -16 c0 -9 16 -50 35 -90 39 -81 110 -161 171 -192 95 -48 259 -54 367
-12 104 39 203 151 238 268 14 47 23 50 114 28 49 -11 50 -12 47 -46 -4 -55
-85 -209 -144 -274 -109 -122 -241 -180 -408 -180 -255 1 -447 133 -556 382
-19 42 -34 82 -34 89 0 6 28 18 63 26 86 20 107 20 107 1z m803 -12 c-3 -12
-12 -22 -19 -22 -18 0 -18 9 3 32 20 22 24 19 16 -10z m-763 -7 c10 -12 10
-15 -4 -15 -9 0 -16 7 -16 15 0 8 2 15 4 15 2 0 9 -7 16 -15z m-6520 -26 c0
-10 -6 -19 -14 -19 -26 0 -46 -30 -46 -71 0 -35 -3 -39 -25 -39 -24 0 -25 2
-25 74 l0 73 55 1 c48 0 55 -2 55 -19z m126 13 c6 -4 16 -17 23 -29 40 -78
-44 -156 -112 -103 -22 17 -27 30 -27 62 0 53 22 78 69 78 20 0 41 -4 47 -8z
m104 -41 c0 -28 6 -53 13 -60 22 -17 37 8 37 61 0 45 2 48 25 48 24 0 25 -2
25 -75 l0 -75 -27 0 c-16 1 -40 -2 -55 -5 -44 -11 -68 22 -68 95 0 57 1 60 25
60 23 0 25 -3 25 -49z m270 34 c0 -8 -4 -15 -9 -15 -5 0 -11 -14 -15 -30 -4
-20 -14 -34 -31 -40 -32 -12 -31 -15 1 -18 14 -1 30 -4 35 -8 14 -8 10 -60 -6
-74 -21 -17 -89 -24 -114 -11 -21 12 -29 55 -12 65 12 8 20 55 10 62 -12 7
-11 41 1 65 9 16 22 19 75 19 51 0 65 -3 65 -15z m450 -39 c0 -31 5 -58 12
-62 18 -11 38 26 38 73 0 36 3 43 19 43 22 0 28 -13 25 -57 -1 -18 -2 -46 -3
-62 -1 -26 -5 -29 -48 -34 -75 -9 -93 8 -93 88 0 63 1 65 25 65 24 0 25 -3 25
-54z m170 42 c0 -9 3 -9 12 0 19 19 48 15 48 -7 0 -12 -9 -21 -25 -25 -22 -6
-25 -11 -25 -56 0 -47 -2 -50 -25 -50 -24 0 -25 2 -25 75 0 68 2 75 20 75 11
0 20 -5 20 -12z m364 -4 c9 -8 16 -29 16 -45 0 -28 -2 -29 -46 -29 -41 0 -45
-2 -33 -16 9 -11 22 -14 46 -9 26 5 33 3 33 -10 0 -21 -46 -37 -82 -30 -40 9
-62 46 -55 93 4 20 14 43 24 49 24 18 78 16 97 -3z m166 -4 c25 -25 26 -80 1
-111 -26 -33 -86 -32 -113 1 -24 30 -19 97 8 117 27 20 81 16 104 -7z m175 -3
c38 -54 -5 -147 -61 -133 -22 6 -24 4 -24 -30 0 -31 -3 -35 -22 -32 -22 3 -23
8 -26 110 l-3 106 60 1 c51 0 63 -4 76 -22z m239 1 c9 -12 16 -33 16 -45 0
-21 -5 -23 -46 -23 -32 0 -44 -4 -41 -12 2 -8 19 -13 41 -12 28 1 36 -2 36
-17 0 -22 -47 -34 -83 -20 -31 12 -47 39 -47 78 0 47 25 73 70 73 29 0 43 -6
54 -22z m4016 -13 c0 -21 -5 -25 -30 -25 -25 0 -30 4 -30 25 0 21 5 25 30 25
25 0 30 -4 30 -25z m-6494 -60 c1 -8 -3 -13 -9 -12 -7 1 -11 -5 -9 -13 3 -11
-2 -10 -17 4 -20 18 -20 20 -4 38 17 19 35 12 39 -17z m5664 -15 c0 -5 -7 -10
-15 -10 -21 0 -19 -9 8 -30 21 -18 21 -20 5 -36 -11 -11 -22 -14 -35 -9 -16 8
-16 9 5 12 28 5 28 10 0 33 -19 15 -20 20 -9 34 15 18 41 22 41 6z m275 0 c3
-5 -3 -10 -14 -10 -12 0 -21 -4 -21 -10 0 -5 7 -10 15 -10 8 0 15 -4 15 -10 0
-5 -6 -10 -14 -10 -8 0 -17 -10 -19 -22 -2 -13 -5 -2 -6 23 0 25 2 49 6 52 10
10 31 8 38 -3z m139 3 c4 -5 13 -8 19 -8 6 0 14 -11 17 -25 l6 -25 7 28 c9 33
22 35 31 5 l7 -23 10 24 c5 13 12 21 15 18 6 -6 -14 -87 -22 -87 -2 0 -10 12
-16 28 -10 24 -12 25 -16 7 -7 -33 -22 -42 -29 -17 -6 23 -6 23 -20 2 -25 -36
-73 -19 -73 26 0 37 43 68 64 47z m-377 -70 c-2 -16 -4 -5 -4 22 0 28 2 40 4
28 2 -13 2 -35 0 -50z m60 51 c5 -15 7 -15 15 0 5 9 14 16 20 16 6 0 3 -11 -6
-25 -9 -13 -16 -35 -17 -47 -1 -22 -1 -22 -8 3 -5 14 -14 35 -20 47 -8 15 -8
22 -1 22 6 0 13 -7 17 -16z m102 -6 c19 -52 22 -68 12 -68 -6 0 -11 7 -11 15
0 19 -29 20 -36 0 -4 -8 -10 -13 -14 -10 -10 6 20 85 32 85 5 0 12 -10 17 -22z
m111 -13 c0 -24 5 -35 15 -35 8 0 15 -5 15 -11 0 -6 -10 -9 -22 -7 -19 2 -24
10 -26 46 -2 25 1 42 7 42 6 0 11 -16 11 -35z m275 -8 c12 -35 4 -65 -9 -32
-7 20 -36 19 -36 0 0 -8 -4 -15 -10 -15 -12 0 -12 3 -1 32 5 13 12 31 15 41 9
28 26 16 41 -26z m245 18 c0 -21 -5 -25 -30 -25 -25 0 -30 4 -30 25 0 21 5 25
30 25 25 0 30 -4 30 -25z m-6588 -40 c3 0 10 -4 15 -8 4 -5 1 -7 -7 -5 -8 2
-14 -3 -12 -9 1 -7 -4 -12 -10 -10 -7 1 -12 -4 -10 -10 1 -7 -4 -12 -10 -10
-7 1 -12 -4 -10 -10 1 -7 -4 -12 -10 -10 -7 1 -12 -4 -10 -11 1 -6 -4 -11 -10
-10 -7 2 -12 -3 -10 -10 1 -6 -4 -11 -10 -10 -7 2 -12 -3 -10 -10 1 -6 -4 -11
-10 -10 -7 2 -12 -3 -10 -10 1 -6 -4 -11 -10 -10 -7 2 -12 -3 -10 -9 1 -7 -4
-12 -10 -10 -7 1 -12 -4 -10 -10 1 -7 -4 -12 -10 -10 -7 1 -12 -4 -10 -10 1
-7 -4 -12 -10 -10 -7 1 -12 -4 -10 -10 1 -7 -4 -12 -10 -10 -7 1 -12 -4 -10
-10 1 -7 -4 -12 -10 -10 -7 1 -12 -4 -10 -10 1 -7 -4 -12 -10 -10 -7 1 -12 -4
-10 -10 1 -7 -4 -12 -10 -10 -7 1 -12 -3 -11 -9 2 -9 -26 -11 -57 -5 -3 1 67
73 154 160 90 90 164 157 170 153 6 -4 14 -7 18 -7z m6476 -11 c42 -29 20 -95
-34 -96 -36 -1 -61 11 -93 46 -23 24 -23 26 -5 26 10 1 35 9 54 20 43 24 50
24 78 4z m-715 -29 c171 -35 349 -36 489 -4 77 18 79 4 3 -19 -176 -52 -330
-54 -505 -8 -125 34 -202 34 -255 1 -47 -29 -63 -32 -44 -8 43 51 171 67 312
38z m827 -25 c0 -25 -4 -30 -25 -30 -27 0 -41 20 -31 45 3 8 17 15 31 15 21 0
25 -5 25 -30z m-226 -85 c39 -57 24 -105 -36 -120 -39 -10 -78 31 -78 80 0 42
12 69 49 108 l26 28 6 -28 c3 -15 18 -46 33 -68z m226 -15 c0 -25 -4 -30 -25
-30 -27 0 -41 20 -31 45 3 8 17 15 31 15 21 0 25 -5 25 -30z m0 -100 c0 -25
-4 -30 -25 -30 -14 0 -28 7 -31 15 -10 25 4 45 31 45 21 0 25 -5 25 -30z"/>
<path d="M15780 4215 c-288 -288 -527 -522 -531 -519 -8 5 -24 -15 -24 -31 0
-5 -5 -10 -12 -10 -15 0 -28 -13 -28 -28 0 -7 -5 -12 -12 -12 -15 0 -28 -13
-28 -28 0 -7 -5 -12 -12 -12 -15 0 -28 -13 -28 -28 0 -7 -5 -12 -12 -12 -15 0
-28 -13 -28 -28 0 -7 -5 -12 -12 -12 -15 0 -28 -13 -28 -28 0 -7 -5 -12 -12
-12 -15 0 -28 -13 -28 -28 0 -7 -5 -12 -12 -12 -15 0 -28 -13 -28 -28 0 -7 -5
-12 -12 -12 -15 0 -28 -13 -28 -28 0 -7 -5 -12 -12 -12 -15 0 -28 -13 -28 -28
0 -7 -5 -12 -12 -12 -15 0 -28 -13 -28 -28 0 -7 -5 -12 -12 -12 -15 0 -28 -13
-28 -28 0 -7 -5 -12 -12 -12 -15 0 -28 -13 -28 -28 0 -7 -5 -12 -12 -12 -15 0
-28 -13 -28 -28 0 -7 -5 -12 -12 -12 -15 0 -28 -13 -28 -28 0 -7 -5 -12 -12
-12 -15 0 -28 -13 -28 -28 0 -7 -5 -12 -12 -12 -15 0 -28 -13 -28 -28 0 -7 -5
-12 -12 -12 -15 0 -28 -13 -28 -28 0 -7 -5 -12 -12 -12 -7 0 -17 -5 -24 -12
-9 -9 -8 -11 5 -9 10 1 178 163 375 360 196 196 359 355 362 352 3 -3 245 235
538 528 293 293 529 536 524 539 -5 3 -245 -230 -533 -518z m500 481 c0 -2 -8
-10 -17 -17 -16 -13 -17 -12 -4 4 13 16 21 21 21 13z m-40 -40 c0 -2 -8 -10
-17 -17 -16 -13 -17 -12 -4 4 13 16 21 21 21 13z m-40 -40 c0 -2 -8 -10 -17
-17 -16 -13 -17 -12 -4 4 13 16 21 21 21 13z m-40 -40 c0 -2 -8 -10 -17 -17
-16 -13 -17 -12 -4 4 13 16 21 21 21 13z m-40 -40 c0 -2 -8 -10 -17 -17 -16
-13 -17 -12 -4 4 13 16 21 21 21 13z m-40 -40 c0 -2 -8 -10 -17 -17 -16 -13
-17 -12 -4 4 13 16 21 21 21 13z m-40 -40 c0 -2 -8 -10 -17 -17 -16 -13 -17
-12 -4 4 13 16 21 21 21 13z m-40 -40 c0 -2 -8 -10 -17 -17 -16 -13 -17 -12
-4 4 13 16 21 21 21 13z m-40 -40 c0 -2 -8 -10 -17 -17 -16 -13 -17 -12 -4 4
13 16 21 21 21 13z m-40 -40 c0 -2 -8 -10 -17 -17 -16 -13 -17 -12 -4 4 13 16
21 21 21 13z m-40 -40 c0 -2 -8 -10 -17 -17 -16 -13 -17 -12 -4 4 13 16 21 21
21 13z m-40 -40 c0 -2 -8 -10 -17 -17 -16 -13 -17 -12 -4 4 13 16 21 21 21 13z
m-40 -40 c0 -2 -8 -10 -17 -17 -16 -13 -17 -12 -4 4 13 16 21 21 21 13z m-40
-40 c0 -2 -8 -10 -17 -17 -16 -13 -17 -12 -4 4 13 16 21 21 21 13z m-40 -40
c0 -2 -8 -10 -17 -17 -16 -13 -17 -12 -4 4 13 16 21 21 21 13z m-40 -40 c0 -2
-8 -10 -17 -17 -16 -13 -17 -12 -4 4 13 16 21 21 21 13z m-40 -40 c0 -2 -8
-10 -17 -17 -16 -13 -17 -12 -4 4 13 16 21 21 21 13z m-40 -40 c0 -2 -8 -10
-17 -17 -16 -13 -17 -12 -4 4 13 16 21 21 21 13z m-40 -40 c0 -2 -8 -10 -17
-17 -16 -13 -17 -12 -4 4 13 16 21 21 21 13z m-40 -40 c0 -2 -8 -10 -17 -17
-16 -13 -17 -12 -4 4 13 16 21 21 21 13z m-40 -40 c0 -2 -8 -10 -17 -17 -16
-13 -17 -12 -4 4 13 16 21 21 21 13z m-40 -40 c0 -2 -8 -10 -17 -17 -16 -13
-17 -12 -4 4 13 16 21 21 21 13z m-40 -40 c0 -2 -8 -10 -17 -17 -16 -13 -17
-12 -4 4 13 16 21 21 21 13z m-40 -40 c0 -2 -8 -10 -17 -17 -16 -13 -17 -12
-4 4 13 16 21 21 21 13z m-40 -40 c0 -2 -8 -10 -17 -17 -16 -13 -17 -12 -4 4
13 16 21 21 21 13z m-48 -48 c-14 -14 -44 -20 -36 -7 3 5 9 7 14 4 5 -3 11 -1
15 5 3 5 9 10 13 10 3 0 1 -5 -6 -12z"/>
<path d="M14470 2925 c-7 -8 -9 -15 -5 -15 4 0 1 -8 -6 -17 -13 -17 -13 -17 7
0 11 9 21 24 21 32 0 19 -2 19 -17 0z"/>
<path d="M13100 2711 l0 -81 55 0 c46 0 60 4 80 25 31 30 32 66 3 100 -18 20
-35 27 -80 32 l-58 6 0 -82z m108 33 c44 -31 17 -84 -44 -84 l-34 0 0 50 c0
48 1 50 28 50 15 0 38 -7 50 -16z"/>
<path d="M14265 2741 c-3 -6 -11 -9 -16 -5 -5 3 -8 0 -7 -8 2 -7 -3 -12 -10
-10 -8 1 -11 -2 -7 -9 5 -7 10 -8 18 0 7 7 15 7 22 1 8 -7 19 -1 36 17 13 15
17 22 8 15 -11 -8 -19 -8 -26 -1 -8 8 -13 8 -18 0z m19 -22 c-3 -5 -10 -7 -15
-3 -5 3 -7 10 -3 15 3 5 10 7 15 3 5 -3 7 -10 3 -15z"/>
<path d="M19190 1015 c-7 -8 -27 -15 -46 -15 -18 0 -36 -5 -40 -11 -4 -7 7
-10 32 -9 56 3 59 2 41 -17 -10 -12 -19 -51 -24 -112 -9 -91 -9 -93 9 -71 10
12 18 31 18 41 0 11 7 22 15 26 20 7 23 4 29 -30 3 -19 0 -27 -10 -27 -8 0
-14 -7 -14 -15 0 -8 5 -15 10 -15 6 0 10 -4 10 -10 0 -5 -22 -10 -48 -10 -45
0 -94 -21 -81 -34 8 -9 148 -9 192 -1 22 4 37 3 37 -3 0 -11 -69 -22 -154 -23
l-61 -1 50 -14 c64 -18 93 -17 129 1 37 20 53 19 67 -3 8 -12 20 -17 34 -14
13 2 26 -1 29 -7 4 -6 11 -11 17 -11 30 0 -17 101 -56 118 -41 19 -54 14 -15
-6 33 -16 62 -64 47 -78 -9 -9 -47 25 -47 42 0 19 -33 34 -74 34 -21 0 -37 5
-37 13 -6 46 -3 194 4 190 4 -2 7 -22 7 -43 0 -21 5 -42 10 -45 19 -12 11 71
-10 97 -25 32 -18 39 36 31 36 -5 45 -2 50 12 7 17 -10 35 -31 35 -5 -1 -2 -5
8 -11 22 -13 13 -29 -13 -22 -11 3 -17 9 -14 14 7 12 -3 11 -27 -1 -15 -9 -21
-7 -25 5 -8 19 -38 19 -54 0z m17 -37 c-3 -8 -6 -5 -6 6 -1 11 2 17 5 13 3 -3
4 -12 1 -19z m27 -53 c7 -29 -1 -52 -22 -60 -9 -3 -14 -3 -10 0 3 3 2 22 -3
42 -4 20 -6 40 -3 45 8 13 32 -3 38 -27z"/>
<path d="M19255 805 c0 -25 3 -45 8 -45 4 0 7 5 7 12 0 9 3 9 12 0 7 -7 19
-12 28 -12 12 1 12 2 -2 11 -11 6 -18 22 -18 38 0 23 -15 41 -33 41 -1 0 -2
-20 -2 -45z"/>
<path d="M16759 496 c-43 -32 -109 -103 -109 -117 0 -4 10 -5 23 -1 24 6 147
124 147 141 0 17 -12 13 -61 -23z"/>
<path d="M17103 665 c0 -22 2 -30 4 -17 2 12 2 30 0 40 -3 9 -5 -1 -4 -23z"/>
<path d="M17101 554 c0 -11 3 -14 6 -6 3 7 2 16 -1 19 -3 4 -6 -2 -5 -13z"/>
<path d="M17702 620 c0 -14 2 -19 5 -12 2 6 2 18 0 25 -3 6 -5 1 -5 -13z"/>
<path d="M17702 535 c0 -16 2 -22 5 -12 2 9 2 23 0 30 -3 6 -5 -1 -5 -18z"/>
<path d="M17228 543 c-9 -10 -19 -28 -22 -40 -6 -18 -3 -23 12 -23 10 0 27 9
36 19 14 15 15 24 6 40 -13 25 -13 25 -32 4z"/>
<path d="M12123 565 c0 -8 4 -12 9 -9 5 3 6 10 3 15 -9 13 -12 11 -12 -6z"/>
<path d="M13166 497 c-13 -10 -17 -24 -14 -57 3 -41 5 -45 32 -48 35 -4 46 10
46 60 0 27 -5 40 -19 48 -24 13 -24 13 -45 -3z"/>
<path d="M13660 480 c0 -16 5 -21 23 -18 12 2 22 10 22 18 0 8 -10 16 -22 18
-18 3 -23 -2 -23 -18z"/>
<path d="M18815 483 c-11 -3 -24 -10 -30 -15 -7 -7 -2 -8 15 -3 52 15 64 30
15 18z"/>
<path d="M19765 460 c3 -5 0 -10 -7 -12 -7 -3 -2 -7 10 -10 14 -4 20 -2 15 5
-4 7 0 8 11 4 9 -4 15 -3 12 2 -3 5 -15 11 -26 14 -11 3 -18 1 -15 -3z"/>
<path d="M18817 401 c-4 -17 -3 -21 5 -13 5 5 8 16 6 23 -3 8 -7 3 -11 -10z"/>
<path d="M19742 412 c-9 -6 -5 -12 13 -20 15 -7 24 -8 20 -2 -3 5 0 10 7 10 9
0 9 3 -2 10 -18 12 -22 12 -38 2z"/>
<path d="M18835 370 c-10 -11 -14 -20 -9 -20 5 0 15 9 22 20 7 11 11 20 9 20
-2 0 -12 -9 -22 -20z"/>
<path d="M19724 375 c11 -8 27 -15 35 -15 9 0 3 7 -13 15 -36 19 -47 19 -22 0z"/>
<path d="M18846 344 c-10 -25 1 -29 14 -5 6 12 7 21 1 21 -5 0 -12 -7 -15 -16z"/>
<path d="M19733 346 c14 -11 15 -15 5 -19 -9 -4 -9 -6 -1 -6 19 -1 27 20 12
30 -22 14 -36 10 -16 -5z"/>
<path d="M19694 333 c-9 -32 -5 -38 22 -40 27 -2 27 -2 6 13 -12 8 -19 21 -16
29 4 8 3 15 -1 15 -4 0 -9 -8 -11 -17z"/>
<path d="M18890 313 c7 -3 5 -12 -7 -25 -18 -21 -18 -21 5 -9 24 13 26 33 4
37 -8 2 -8 0 -2 -3z"/>
<path d="M18904 268 l-19 -23 23 19 c21 18 27 26 19 26 -2 0 -12 -10 -23 -22z"/>
<path d="M19633 258 c-24 -25 -26 -31 -15 -49 16 -25 8 -37 -13 -19 -11 9 -15
9 -15 1 0 -21 31 -24 49 -5 16 17 16 20 2 31 -9 6 -13 15 -8 19 4 4 17 -2 30
-14 13 -12 27 -22 33 -22 5 1 -4 12 -21 25 -16 13 -26 27 -22 31 3 4 12 2 19
-4 9 -7 16 -6 24 2 8 9 5 15 -12 23 -19 9 -27 6 -51 -19z"/>
<path d="M18922 248 c-20 -20 -13 -32 8 -13 11 10 20 13 20 7 0 -6 -4 -14 -10
-17 -5 -3 -10 -12 -10 -18 0 -7 9 -1 19 12 11 14 21 20 25 13 3 -6 2 -13 -4
-17 -5 -3 -10 -12 -10 -18 0 -7 7 -3 16 8 14 18 13 22 -7 38 -25 20 -31 21
-47 5z"/>
<path d="M18992 200 c-18 -29 -15 -38 4 -12 9 13 14 25 12 27 -2 2 -9 -5 -16
-15z"/>
<path d="M19046 208 c-13 -40 -16 -72 -8 -63 10 11 24 75 16 75 -2 0 -6 -6 -8
-12z"/>
<path d="M19065 169 c-10 -43 -1 -46 12 -4 6 19 7 35 3 35 -5 0 -11 -14 -15
-31z"/>
<path d="M19531 192 c-2 -26 20 -52 42 -51 l22 0 -23 9 c-12 5 -27 20 -32 32
-5 13 -9 17 -9 10z"/>
<path d="M19120 140 c-11 -11 -20 -25 -20 -32 0 -6 3 -8 7 -5 3 4 11 2 18 -3
8 -7 12 -6 12 3 0 6 3 22 7 35 9 27 2 28 -24 2z m7 -22 c-3 -8 -6 -5 -6 6 -1
11 2 17 5 13 3 -3 4 -12 1 -19z"/>
<path d="M19245 139 c-4 -5 0 -18 8 -27 8 -9 16 -23 18 -30 3 -7 9 -4 18 10 7
13 10 20 6 16 -12 -12 -47 12 -41 28 6 16 0 19 -9 3z"/>
<path d="M19474 143 c4 -4 19 -8 34 -10 23 -2 24 -1 7 7 -24 11 -51 13 -41 3z"/>
<path d="M19450 125 c10 -12 10 -19 2 -27 -8 -8 -14 -5 -21 13 -5 13 -10 19
-10 12 -1 -6 -4 -20 -7 -30 -4 -13 -3 -15 4 -4 7 9 11 10 17 2 5 -9 10 -9 20
-1 8 7 19 9 24 6 5 -4 12 -2 16 4 3 5 -1 10 -9 10 -9 0 -16 4 -16 9 0 5 -7 12
-16 15 -14 5 -15 4 -4 -9z"/>
<path d="M19150 111 c0 -11 4 -22 9 -25 4 -3 6 6 3 19 -5 30 -12 33 -12 6z"/>
<path d="M19181 123 c0 -5 4 -17 9 -28 8 -19 9 -19 9 2 1 12 7 24 14 26 6 3 2
6 -10 6 -13 1 -23 -2 -22 -6z"/>
<path d="M19395 120 c3 -5 8 -10 11 -10 2 0 4 5 4 10 0 6 -5 10 -11 10 -5 0
-7 -4 -4 -10z"/>
<path d="M19331 93 c2 -24 2 -25 6 -5 5 26 18 28 33 5 11 -17 11 -17 6 0 -3
10 -6 21 -6 23 0 2 -9 4 -20 4 -15 0 -20 -6 -19 -27z"/>
<path d="M19290 80 c0 -6 7 -10 15 -10 8 0 15 2 15 4 0 2 -7 6 -15 10 -8 3
-15 1 -15 -4z"/>
<path d="M12477 454 c-13 -13 -7 -62 7 -67 20 -8 38 17 34 45 -3 22 -27 35
-41 22z"/>
<path d="M12810 450 c0 -11 7 -20 15 -20 8 0 15 9 15 20 0 11 -7 20 -15 20 -8
0 -15 -9 -15 -20z"/>
<path d="M12795 330 c-4 -6 6 -10 24 -10 16 0 33 5 36 10 4 6 -6 10 -24 10
-16 0 -33 -4 -36 -10z"/>
<path d="M13830 460 c-19 -12 -7 -22 21 -18 19 2 20 5 8 15 -9 7 -20 9 -29 3z"/>
<path d="M13987 454 c-12 -12 -8 -51 6 -62 20 -17 39 2 35 34 -3 27 -26 43
-41 28z"/>
<path d="M14157 454 c-12 -12 -8 -51 7 -63 18 -15 39 9 34 41 -3 22 -27 35
-41 22z"/>
<path d="M14407 464 c-13 -13 -7 -24 14 -24 11 0 19 5 17 12 -5 14 -22 21 -31
12z"/>
<path d="M11969 428 c0 -2 -2 -11 -4 -21 -3 -15 -1 -16 11 -6 7 6 11 15 8 20
-5 9 -13 12 -15 7z"/>
<path d="M18037 373 c-4 -3 -7 -17 -7 -30 0 -26 34 -33 44 -8 11 30 -17 59
-37 38z"/>
<path d="M17835 350 c-3 -5 -1 -10 4 -10 6 0 11 5 11 10 0 6 -2 10 -4 10 -3 0
-8 -4 -11 -10z"/>
<path d="M18210 350 c0 -5 5 -10 10 -10 6 0 10 5 10 10 0 6 -4 10 -10 10 -5 0
-10 -4 -10 -10z"/>
<path d="M11852 306 c-4 -6 -7 -15 -7 -21 0 -5 -5 -10 -12 -10 -15 0 -28 -13
-28 -28 0 -7 -5 -12 -12 -12 -15 0 -28 -13 -28 -28 0 -7 -5 -12 -12 -12 -15 0
-28 -13 -28 -28 0 -7 -5 -12 -12 -12 -15 0 -28 -13 -28 -28 0 -7 -5 -12 -12
-12 -15 0 -28 -13 -28 -28 0 -7 -5 -12 -12 -12 -15 0 -28 -13 -28 -28 0 -7 -5
-12 -12 -12 -6 0 -14 -3 -17 -6 -3 -3 0 -6 8 -6 8 0 80 66 161 147 81 81 139
147 130 147 -9 0 -19 -5 -23 -11z"/>
<path d="M3987 2925 c-93 -34 -137 -96 -137 -190 0 -31 6 -70 13 -88 19 -44
82 -99 153 -132 97 -45 126 -82 83 -106 -29 -15 -97 -4 -187 31 l-73 28 3 -96
3 -97 55 -19 c37 -13 84 -20 145 -20 79 -1 97 2 146 27 97 47 138 139 109 243
-17 61 -62 105 -153 150 -84 42 -107 60 -107 85 0 36 62 34 187 -6 21 -7 26 0
53 60 16 37 30 73 30 80 0 12 -51 35 -125 54 -55 15 -152 13 -198 -4z m228
-32 c28 -9 53 -19 58 -22 8 -8 -31 -111 -43 -111 -4 0 -24 7 -43 15 -49 20
-135 20 -159 -2 -44 -40 -12 -82 105 -137 69 -33 112 -68 132 -107 19 -36 19
-132 0 -169 -19 -36 -68 -74 -119 -90 -50 -16 -199 -8 -248 13 l-38 16 0 67
c0 59 2 65 18 59 117 -47 216 -59 246 -29 21 21 20 67 -1 86 -10 8 -55 34
-101 58 -45 23 -93 55 -107 72 -34 40 -49 97 -41 152 19 127 167 182 341 129z"/>
<path d="M4565 2927 c-94 -32 -158 -88 -198 -175 -18 -40 -21 -66 -21 -172 -1
-109 2 -131 22 -176 29 -64 82 -116 147 -145 64 -29 203 -32 283 -5 l52 18 0
84 c0 46 -4 84 -8 84 -5 0 -33 -7 -63 -16 -165 -50 -240 -1 -241 156 -1 165
73 223 213 166 35 -14 67 -22 70 -18 10 10 59 133 59 148 0 7 -26 22 -57 34
-72 27 -201 36 -258 17z m222 -33 c29 -8 54 -18 58 -23 3 -5 -4 -34 -16 -64
l-21 -54 -49 18 c-102 39 -188 17 -225 -57 -26 -54 -27 -214 -1 -262 38 -69
119 -89 237 -57 30 8 56 15 58 15 1 0 2 -27 2 -60 l0 -59 -56 -17 c-83 -24
-205 -17 -269 16 -56 29 -107 95 -127 163 -15 55 -16 201 0 254 18 62 72 134
122 165 75 46 172 54 287 22z"/>
<path d="M5267 2925 c-93 -34 -137 -96 -137 -190 0 -31 6 -70 13 -88 18 -42
80 -97 142 -127 65 -30 115 -67 115 -85 0 -44 -87 -42 -208 5 l-73 28 3 -96 3
-97 55 -19 c37 -13 84 -20 145 -20 80 -1 97 2 148 27 68 34 104 81 113 150 15
107 -33 180 -159 243 -84 42 -107 60 -107 85 0 36 62 34 187 -6 21 -7 26 0 53
60 16 37 30 73 30 80 0 12 -51 35 -125 54 -55 15 -152 13 -198 -4z m228 -32
c28 -9 53 -19 58 -22 8 -8 -31 -111 -43 -111 -4 0 -24 7 -43 15 -49 20 -135
20 -159 -2 -44 -40 -12 -82 105 -137 69 -33 112 -68 132 -107 19 -36 19 -132
0 -169 -19 -36 -68 -74 -119 -90 -50 -16 -199 -8 -248 13 l-38 16 0 67 c0 59
2 65 18 59 117 -47 216 -59 246 -29 21 21 20 67 -1 86 -10 8 -55 34 -101 58
-45 23 -93 55 -107 72 -34 40 -49 97 -41 152 19 127 167 182 341 129z"/>
<path d="M7766 2916 c-86 -36 -123 -71 -164 -156 -25 -51 -27 -64 -27 -180 0
-109 3 -132 23 -176 29 -63 82 -116 147 -146 42 -19 65 -22 145 -21 52 0 115
7 140 15 l45 14 3 91 3 91 -63 -20 c-177 -55 -249 -9 -249 158 0 164 82 219
229 154 25 -11 49 -17 53 -13 10 11 59 134 59 149 0 23 -110 57 -200 61 -73 3
-93 0 -144 -21z m251 -22 c29 -8 54 -18 58 -23 3 -5 -4 -34 -16 -64 l-21 -54
-49 18 c-102 39 -188 17 -225 -57 -26 -54 -27 -214 -1 -262 38 -69 119 -89
237 -57 30 8 56 15 58 15 1 0 2 -27 2 -60 l0 -59 -56 -17 c-83 -24 -205 -17
-269 16 -56 29 -107 95 -127 163 -15 55 -16 201 0 254 18 62 72 134 122 165
75 46 172 54 287 22z"/>
<path d="M9583 2932 l-203 -2 0 -345 0 -345 215 0 215 0 0 85 0 85 -115 0
-115 0 0 50 0 50 105 0 105 0 0 90 0 90 -105 0 -105 0 0 35 0 35 115 0 115 0
1 48 c0 41 15 5 106 -260 l106 -308 96 0 96 0 115 341 115 340 3 -340 2 -341
215 0 215 0 0 85 0 85 -115 0 -115 0 0 50 0 50 105 0 105 0 0 90 0 90 -105 0
-105 0 0 35 0 35 115 0 115 0 0 85 0 85 -320 0 c-227 0 -320 -3 -320 -11 0 -6
-28 -97 -62 -203 l-61 -191 -13 40 c-7 22 -36 113 -64 202 l-51 162 -102 3
c-56 2 -193 2 -304 0z m197 -82 l0 -60 -115 0 -115 0 0 -65 0 -65 105 0 105 0
0 -60 0 -60 -105 0 -105 0 0 -75 0 -74 113 -3 112 -3 3 -57 3 -58 -186 0 -185
0 0 320 0 320 185 0 185 0 0 -60z m190 55 c0 -2 27 -89 60 -192 32 -103 66
-213 73 -243 14 -52 15 -54 22 -25 3 17 37 127 74 245 l67 215 73 3 c57 2 72
0 69 -10 -3 -7 -51 -152 -109 -321 l-104 -308 -79 3 -78 3 -104 305 c-57 168
-104 311 -104 318 0 8 21 12 70 12 39 0 70 -2 70 -5z m880 -55 l0 -60 -115 0
-115 0 0 -65 0 -65 110 0 110 0 0 -60 0 -60 -110 0 -110 0 0 -75 0 -74 113 -3
112 -3 3 -57 3 -58 -186 0 -185 0 0 320 0 320 185 0 185 0 0 -60z"/>
<path d="M11830 2937 c0 -2 -54 -156 -120 -342 -66 -186 -120 -343 -120 -347
0 -4 47 -8 104 -8 l105 0 23 73 23 72 90 3 91 3 22 -76 22 -75 105 0 c62 0
105 4 105 10 0 5 -48 144 -106 307 -58 164 -113 317 -121 341 l-15 42 -104 0
c-57 0 -104 -1 -104 -3z m301 -342 c60 -170 109 -313 109 -317 0 -5 -34 -8
-75 -8 l-74 0 -22 75 -22 75 -112 0 -112 0 -22 -75 -22 -75 -74 0 c-41 0 -75
3 -75 7 0 5 116 340 215 621 3 9 27 12 91 10 l86 -3 109 -310z"/>
<path d="M11899 2667 l-36 -122 70 -3 c38 -2 71 -1 73 1 3 2 -46 172 -69 239
-1 4 -18 -48 -38 -115z m66 -74 c6 -32 6 -33 -29 -33 -20 0 -36 3 -36 7 0 3 8
31 17 61 l17 55 12 -29 c6 -16 15 -44 19 -61z"/>
<path d="M12500 2931 c-95 -31 -169 -94 -209 -180 -23 -50 -26 -68 -26 -171 0
-103 3 -121 26 -170 36 -77 71 -115 137 -147 53 -26 65 -28 182 -28 98 1 137
5 179 20 l54 20 -1 95 c-1 52 -1 139 -2 193 l0 97 -155 0 -155 0 0 -90 0 -89
58 -3 c56 -3 57 -3 57 -33 0 -29 -2 -30 -45 -33 -91 -5 -133 46 -134 162 0 85
21 136 69 166 44 27 143 27 203 0 l43 -19 20 47 c44 102 49 114 44 122 -3 5
-26 16 -53 25 -52 19 -250 30 -292 16z m258 -37 c28 -8 52 -19 52 -23 0 -9
-38 -103 -44 -108 -2 -2 -20 4 -42 13 -56 23 -169 16 -211 -14 -103 -73 -104
-299 0 -362 23 -14 50 -20 95 -20 l62 0 0 65 0 64 -57 3 -58 3 0 55 0 55 128
3 127 3 0 -169 0 -169 -37 -12 c-65 -22 -231 -26 -294 -8 -118 35 -181 129
-187 282 -5 112 13 182 63 247 76 101 238 137 403 92z"/>
<path d="M2529 2828 c-1 -57 -3 -212 -5 -345 l-3 -243 214 0 215 0 0 85 0 85
-115 0 -115 0 0 50 0 50 105 0 105 0 0 85 0 85 -105 0 -105 0 0 40 0 40 114 0
115 0 3 46 c2 38 14 1 72 -228 38 -150 74 -288 78 -305 l9 -33 98 0 99 0 21
78 c11 42 30 119 43 170 12 50 25 92 28 92 4 0 12 -24 19 -52 6 -29 26 -106
43 -170 l31 -118 98 0 c84 0 98 2 103 18 14 45 166 650 166 660 0 8 -29 12
-94 12 l-94 0 -17 -72 c-58 -258 -68 -293 -76 -273 -5 11 -27 93 -50 183 l-42
162 -87 0 -87 0 -43 -167 c-48 -189 -55 -207 -63 -172 -3 13 -22 95 -42 182
l-37 157 -299 0 -299 0 -1 -102z m391 22 l0 -60 -115 0 -115 0 0 -65 0 -65
110 0 110 0 0 -60 0 -60 -110 0 -110 0 0 -75 0 -74 113 -3 112 -3 3 -57 3 -58
-186 0 -185 0 0 320 0 320 185 0 185 0 0 -60z m203 -7 c63 -271 87 -381 88
-398 1 -11 6 0 11 25 15 69 108 423 114 432 3 4 33 8 68 8 l63 0 52 -202 c28
-112 56 -223 60 -248 5 -25 9 -35 10 -22 1 13 24 124 53 248 l51 224 69 0 c48
0 68 -4 68 -12 0 -7 -36 -150 -79 -318 l-78 -305 -81 -3 -81 -3 -9 33 c-5 18
-29 113 -53 210 -24 98 -46 178 -49 178 -3 0 -25 -80 -49 -178 -24 -97 -48
-192 -53 -209 l-9 -33 -79 0 c-68 0 -79 2 -85 19 -10 34 -155 604 -155 613 0
4 31 8 69 8 l69 0 15 -67z"/>
<path d="M5640 2585 l0 -345 215 0 215 0 0 85 0 85 -115 0 -115 0 0 50 0 50
105 0 105 0 0 85 0 85 -105 0 -105 0 0 40 0 40 115 0 115 0 0 85 0 85 -215 0
-215 0 0 -345z m400 265 l0 -60 -115 0 -115 0 0 -65 0 -65 110 0 110 0 0 -60
0 -60 -110 0 -110 0 0 -75 0 -74 113 -3 112 -3 3 -57 3 -58 -186 0 -185 0 0
320 0 320 185 0 185 0 0 -60z"/>
<path d="M6140 2585 l0 -345 100 0 100 0 0 120 c0 90 3 120 13 120 6 -1 45
-55 85 -120 l73 -120 110 0 c85 0 109 3 103 13 -4 6 -48 72 -96 145 l-89 133
40 44 c80 86 81 208 2 286 -55 55 -114 69 -293 69 l-148 0 0 -345z m372 292
c68 -33 98 -81 98 -157 0 -79 -28 -124 -109 -177 -2 -1 35 -57 81 -125 46 -68
88 -129 92 -135 5 -10 -11 -13 -73 -13 l-80 0 -73 120 c-69 113 -75 120 -105
120 l-33 0 0 -120 0 -120 -70 0 -70 0 0 321 0 322 144 -5 c130 -5 150 -8 198
-31z"/>
<path d="M6310 2711 l0 -81 55 0 c46 0 60 4 80 25 31 30 32 66 3 100 -18 20
-35 27 -80 32 l-58 6 0 -82z m111 39 c27 -15 25 -64 -3 -84 -12 -9 -35 -16
-50 -16 -27 0 -28 2 -28 55 0 55 0 55 31 55 17 0 39 -5 50 -10z"/>
<path d="M6641 2918 c0 -7 51 -161 113 -343 l112 -330 96 -3 95 -3 113 333
c62 183 115 339 118 346 3 9 -20 12 -96 12 l-100 0 -45 -142 c-25 -79 -53
-169 -63 -200 -10 -32 -20 -56 -23 -53 -2 3 -32 92 -66 198 l-61 192 -97 3
c-74 2 -97 0 -96 -10z m221 -163 c26 -82 60 -193 75 -245 19 -64 29 -87 31
-70 2 14 35 123 73 243 38 120 69 221 69 223 0 2 32 4 70 4 49 0 70 -4 70 -12
0 -7 -47 -150 -104 -318 l-104 -305 -78 -3 -79 -3 -104 308 c-58 169 -106 314
-109 321 -3 10 12 12 69 10 l73 -3 48 -150z"/>
<path d="M7300 2585 l0 -345 95 0 95 0 0 345 0 345 -95 0 -95 0 0 -345z m170
5 l0 -320 -70 0 -70 0 0 320 0 320 70 0 70 0 0 -320z"/>
<path d="M8160 2585 l0 -345 210 0 210 0 0 85 0 85 -115 0 -115 0 0 50 0 50
110 0 110 0 0 85 0 84 -107 3 -108 3 -3 38 -3 37 115 0 116 0 0 85 0 85 -210
0 -210 0 0 -345z m398 263 l3 -58 -116 0 -115 0 0 -65 0 -65 105 0 105 0 0
-60 0 -60 -105 0 -105 0 0 -75 0 -74 113 -3 112 -3 3 -57 3 -58 -191 0 -190 0
0 320 0 320 188 -2 187 -3 3 -57z"/>
<path d="M8880 2585 l0 -345 225 0 225 0 0 85 0 85 -125 0 -125 0 0 260 0 260
-100 0 -100 0 0 -345z m170 65 l0 -259 128 -3 127 -3 3 -57 3 -58 -201 0 -200
0 0 320 0 320 70 0 70 0 0 -260z"/>
<path d="M10950 2585 l0 -345 225 0 225 0 0 85 0 85 -125 0 -125 0 -1 208 c-1
114 -2 230 -3 257 l-1 50 -97 3 -98 3 0 -346z m170 65 l0 -260 125 0 125 0 0
-60 0 -60 -195 0 -195 0 0 320 0 320 70 0 70 0 0 -260z"/>
<path d="M13963 2446 c1 -6 -5 -10 -13 -8 -11 3 -11 -1 3 -16 9 -10 14 -23 10
-27 -5 -5 0 -3 10 4 19 15 22 22 8 19 -5 -2 -9 2 -9 7 0 6 3 9 7 8 4 -1 8 4 8
11 0 7 -6 13 -13 13 -7 0 -12 -5 -11 -11z"/>
<path d="M13779 2213 c-1 -1 -2 -6 -3 -10 -1 -5 -5 -15 -10 -23 -5 -8 3 -4 17
9 15 14 27 25 27 26 0 3 -30 2 -31 -2z"/>
<path d="M12719 1133 c-13 -16 -12 -17 4 -4 16 13 21 21 13 21 -2 0 -10 -8
-17 -17z"/>
</g>
</svg>
